<?xml version="1.0" standalone="no"?>
<!DOCTYPE svg PUBLIC "-//W3C//DTD SVG 20010904//EN"
 "http://www.w3.org/TR/2001/REC-SVG-20010904/DTD/svg10.dtd">
<svg version="1.0" xmlns="http://www.w3.org/2000/svg"
 width="512.000000pt" height="512.000000pt" viewBox="0 0 512.000000 512.000000"
 preserveAspectRatio="xMidYMid meet">

<g transform="translate(0.000000,512.000000) scale(0.100000,-0.100000)"
fill="#000000" stroke="none">
<path d="M337 4786 c-212 -57 -230 -352 -27 -445 29 -13 91 -16 382 -19 332
-3 347 -4 365 -24 10 -11 56 -149 108 -331 l91 -312 78 -3 c71 -3 77 -1 72 15
-3 10 -43 155 -90 323 -47 168 -98 329 -112 358 -36 70 -93 110 -179 124 l-65
11 0 78 0 79 158 0 c152 0 159 -1 179 -22 14 -16 63 -175 153 -495 l134 -473
77 0 78 0 -20 68 c-11 37 -22 79 -26 95 l-5 27 205 0 205 0 12 -52 c6 -29 14
-72 17 -95 l6 -43 77 0 78 0 -14 73 c-7 39 -16 82 -19 95 l-5 22 239 0 239 0
6 -27 c2 -16 8 -58 11 -95 l7 -68 74 0 75 0 -6 73 c-3 39 -8 82 -11 95 l-4 22
320 0 c301 0 321 -1 316 -17 -2 -10 -7 -53 -11 -95 l-7 -78 75 0 75 0 7 78
c11 125 -18 112 254 112 l239 0 -13 -62 c-7 -35 -15 -78 -19 -95 l-5 -33 74 0
74 0 10 38 c5 20 15 63 21 95 l11 57 203 0 204 0 -13 -62 c-7 -35 -15 -78 -19
-95 l-5 -33 74 0 c85 0 75 -13 105 134 26 128 26 168 -1 192 -21 18 -64 19
-1614 22 -1504 2 -1594 3 -1599 20 -3 9 -44 154 -90 320 -48 171 -96 322 -110
346 -29 50 -88 92 -148 106 -67 15 -891 12 -951 -4z m463 -226 l0 -80 -217 0
c-209 0 -218 1 -240 22 -30 28 -31 83 -1 115 21 23 25 23 240 23 l218 0 0 -80z"/>
</g>
</svg>
