<?xml version="1.0" standalone="no"?>
<!DOCTYPE svg PUBLIC "-//W3C//DTD SVG 20010904//EN"
 "http://www.w3.org/TR/2001/REC-SVG-20010904/DTD/svg10.dtd">
<svg version="1.0" xmlns="http://www.w3.org/2000/svg"
 width="400.000000pt" height="400.000000pt" viewBox="0 0 400.000000 400.000000"
 preserveAspectRatio="xMidYMid meet">

<g transform="translate(0.000000,400.000000) scale(0.100000,-0.100000)"
fill="#000000" stroke="none">
<path d="M2335 3804 c-135 -32 -163 -46 -227 -108 -41 -39 -54 -46 -88 -46
-57 0 -102 -21 -149 -70 -74 -77 -87 -179 -36 -280 22 -42 120 -150 137 -150
4 0 8 -7 8 -15 0 -8 -4 -15 -8 -15 -13 0 -41 -56 -43 -86 -1 -16 3 -49 9 -74
7 -27 9 -85 5 -145 -6 -110 14 -226 63 -361 13 -37 24 -70 24 -73 0 -3 -16
-17 -35 -30 -19 -13 -35 -30 -35 -37 0 -8 -8 -14 -19 -14 -10 0 -33 -3 -50 -6
-25 -5 -31 -3 -31 10 0 10 -11 41 -25 71 -41 86 -145 158 -296 204 -75 24 -76
24 -87 68 -10 36 -18 47 -47 59 -20 8 -46 12 -60 8 -29 -7 -65 -48 -65 -75 0
-14 -11 -19 -47 -24 -165 -20 -291 -58 -343 -102 -17 -14 -53 -66 -80 -117
l-49 -91 -60 -12 c-73 -14 -162 -53 -196 -87 -95 -95 80 -217 390 -271 55 -10
101 -19 103 -20 2 -2 -15 -31 -37 -65 -47 -73 -51 -104 -19 -167 22 -43 22
-44 4 -91 -33 -86 -48 -156 -44 -203 11 -113 184 -309 273 -309 35 0 135 45
202 91 26 18 80 64 121 103 68 64 74 68 67 41 -5 -16 -9 -88 -10 -160 -1 -72
-9 -170 -18 -220 -22 -120 -36 -219 -31 -224 9 -10 47 98 69 195 13 59 26 109
29 111 3 3 8 -12 11 -33 4 -22 11 -55 15 -74 7 -32 8 -31 9 20 1 30 -8 87 -19
125 -11 38 -20 95 -20 126 0 82 37 251 71 322 37 80 38 121 1 49 l-28 -52 1
127 c0 71 -3 158 -8 194 l-7 66 62 7 c35 3 86 9 114 12 l51 6 -40 -81 c-21
-45 -43 -81 -48 -81 -6 0 -7 -4 -4 -10 3 -5 17 -10 31 -10 18 0 24 -5 24 -22
0 -13 -23 -189 -50 -393 -51 -371 -76 -696 -53 -682 6 4 14 72 18 157 4 82 30
324 59 537 l52 387 70 12 c38 6 85 19 104 29 35 18 140 120 140 136 0 19 16 7
34 -25 37 -69 105 -122 211 -165 54 -23 101 -41 103 -41 2 0 2 -15 0 -32 -3
-30 -8 -34 -81 -63 -104 -40 -124 -67 -93 -126 7 -15 11 -39 9 -53 -3 -15 2
-36 11 -51 9 -13 16 -33 16 -43 0 -10 7 -27 15 -38 8 -10 15 -38 15 -62 0 -36
4 -45 31 -61 46 -28 116 -36 138 -17 10 9 33 16 53 16 l35 0 7 -157 7 -157
-40 -78 c-23 -43 -41 -81 -41 -85 0 -5 21 15 45 42 l45 50 19 -22 c10 -12 28
-62 40 -110 30 -122 43 -137 36 -43 -3 41 -2 81 3 88 5 7 54 25 108 38 107 28
130 41 139 84 8 37 15 42 112 80 163 62 288 165 344 283 41 87 39 146 -7 278
-20 56 -40 131 -44 167 -9 66 -25 94 -69 115 -24 11 -80 106 -109 182 -6 17
-27 75 -47 130 -63 169 -59 165 -205 204 -47 13 -96 27 -110 31 -14 5 -49 14
-79 21 -58 14 -64 22 -75 99 -9 59 -16 69 -62 85 -24 8 -39 19 -38 29 3 64 3
63 47 70 82 13 165 81 181 150 10 40 -10 92 -47 120 -43 34 -31 39 31 16 77
-29 121 -26 178 13 112 74 140 242 57 329 l-26 28 18 59 c39 129 -12 252 -130
314 -31 16 -58 21 -117 21 l-77 0 -17 39 c-24 52 -94 112 -163 138 -54 20
-191 34 -236 23z m145 -34 c155 -29 249 -121 250 -245 0 -36 3 -46 10 -35 5 8
10 25 10 37 0 41 74 60 148 38 109 -33 176 -146 152 -257 -14 -71 -22 -81 -72
-95 -37 -9 -39 -11 -15 -12 119 -4 177 -150 103 -261 -25 -38 -78 -80 -101
-80 -5 0 2 10 17 23 29 24 48 64 48 103 0 20 -5 24 -33 24 -21 0 -42 9 -61 26
-32 31 -79 124 -97 195 -14 52 -19 58 -39 34 -33 -40 -77 1 -65 61 l6 34 -69
0 c-162 0 -245 58 -278 195 l-12 50 -46 -97 c-46 -99 -65 -118 -110 -118 l-25
0 18 33 c11 17 22 43 26 57 6 19 0 15 -24 -17 -74 -102 -182 -109 -257 -16
-33 40 -29 16 6 -40 16 -26 27 -47 24 -47 -12 0 -62 30 -74 45 -10 13 -15 13
-21 3 -16 -25 -9 -85 16 -133 13 -27 23 -51 21 -52 -7 -7 -66 75 -81 111 -22
53 -19 133 8 181 30 53 93 96 151 102 l46 6 0 -49 c0 -75 17 -87 22 -15 6 78
40 123 129 169 95 48 172 60 269 42z m0 -430 c134 -45 256 -132 335 -240 l36
-49 -28 -65 c-15 -36 -31 -66 -34 -66 -3 0 -20 20 -38 45 -18 25 -37 45 -42
45 -6 0 3 -17 18 -37 23 -31 15 -27 -42 25 -84 75 -202 136 -306 158 -56 12
-107 15 -212 11 l-137 -6 5 22 c3 12 13 53 23 92 l17 70 55 12 c85 19 271 10
350 -17z m-90 -212 c55 -13 177 -68 208 -94 22 -18 22 -22 12 -99 -11 -84 -4
-201 12 -211 6 -4 31 14 57 40 37 36 51 44 71 40 47 -10 69 -27 75 -55 16 -74
-87 -166 -172 -154 -41 6 -42 5 -47 -27 -3 -18 -10 -60 -16 -92 -5 -33 -10
-76 -10 -96 0 -30 -8 -44 -51 -85 -31 -30 -49 -42 -44 -30 27 72 54 159 51
162 -2 2 -11 -18 -21 -44 -41 -110 -77 -165 -134 -201 -30 -19 -74 -41 -98
-48 l-43 -13 -1 27 0 27 -16 -22 c-24 -35 -42 -28 -68 30 -32 67 -32 83 -2 62
12 -8 39 -20 60 -26 53 -14 91 7 176 96 62 65 180 225 166 225 -3 0 -38 -27
-78 -61 -174 -147 -243 -174 -340 -131 -54 24 -67 43 -101 143 -54 163 -68
276 -47 372 6 23 15 91 22 150 7 59 17 111 23 114 35 22 264 23 356 1z m-1005
-483 c0 -15 -8 -21 -32 -23 -36 -4 -42 8 -17 33 21 21 49 15 49 -10z m17 -80
c103 -19 190 -49 263 -90 94 -52 113 -81 122 -184 5 -61 3 -70 -13 -79 -59
-31 -498 -33 -659 -2 -69 13 -276 78 -289 90 -11 11 6 57 47 127 34 57 83 90
177 117 124 36 239 43 352 21z m-652 -311 c0 -4 -8 -28 -17 -54 -17 -47 -17
-48 -40 -33 -39 26 -26 -3 19 -41 102 -87 424 -146 798 -146 187 0 283 11 348
40 l45 20 -7 43 c-4 23 -10 53 -13 66 -5 21 -3 22 18 16 13 -3 52 -20 85 -36
196 -93 65 -182 -305 -209 -162 -12 -432 0 -612 26 -304 44 -557 140 -547 208
2 11 21 33 43 48 50 35 185 72 185 52z m140 -18 c117 -37 248 -56 475 -68 145
-7 239 -7 305 0 52 6 96 9 98 7 2 -2 -13 -21 -33 -43 -22 -25 -69 -57 -123
-84 l-87 -43 -125 3 c-238 4 -482 43 -589 93 -59 27 -63 31 -58 57 10 46 37
102 50 102 6 0 46 -11 87 -24z m1051 -42 c13 -16 11 -17 -16 -10 -32 7 -68 42
-59 57 6 10 52 -19 75 -47z m952 6 c78 -23 148 -43 155 -45 9 -3 -2 -23 -32
-61 -66 -80 -57 -88 13 -13 44 48 62 61 71 53 6 -6 40 -86 75 -176 35 -91 70
-179 79 -196 14 -27 14 -31 1 -26 -8 4 -15 9 -15 13 -1 3 -12 20 -26 36 l-26
30 24 -45 c15 -29 41 -56 73 -77 95 -62 95 -61 95 -101 0 -49 36 -238 50 -260
8 -13 10 -7 5 28 -4 38 -3 41 6 20 19 -44 16 -180 -5 -220 -49 -91 -211 -206
-319 -225 -54 -10 -67 5 -67 77 0 90 -29 296 -50 349 l-18 48 72 12 c117 22
166 17 237 -19 59 -31 62 -31 40 -8 -13 13 -36 30 -52 36 -50 21 -28 73 36 83
27 4 26 4 -8 6 -20 0 -70 -10 -109 -24 -158 -55 -248 -10 -298 151 -28 93 -25
158 15 279 18 55 -63 -90 -86 -155 -21 -57 -28 -68 -28 -45 0 17 3 47 8 67 5
22 5 36 0 32 -5 -3 -9 -17 -9 -31 0 -18 -4 -24 -15 -19 -13 4 -15 -10 -15 -92
-1 -103 -16 -156 -37 -130 -7 7 -28 47 -48 88 -29 61 -35 84 -33 125 3 45 1
50 -19 53 -27 4 -79 -31 -88 -58 -9 -27 -21 -17 -29 22 -4 18 -25 69 -47 114
-39 78 -40 82 -26 115 12 27 37 47 131 103 63 38 128 82 143 98 15 15 29 28
31 28 2 0 67 -18 145 -40z m-1813 -305 c0 -39 194 -185 246 -185 16 0 67 18
113 40 45 22 85 40 88 40 3 0 3 -37 0 -82 -7 -83 -14 -97 -52 -98 -22 0 -127
-48 -109 -49 6 -1 31 6 54 14 55 20 53 21 45 -22 -18 -95 -44 -140 -127 -218
-52 -47 -75 -75 -64 -75 10 0 47 28 84 63 l66 62 -29 -50 c-19 -33 -22 -45
-11 -36 33 27 65 96 87 186 16 68 28 95 47 112 24 20 26 29 30 132 4 96 2 111
-12 117 -23 9 -20 31 7 38 41 11 77 7 77 -9 0 -62 -26 -233 -45 -293 -45 -143
-177 -317 -286 -377 -46 -25 -65 -30 -128 -30 l-73 0 -50 55 c-27 30 -60 79
-75 108 -28 57 -28 85 4 181 13 41 20 50 32 45 9 -4 70 -9 136 -10 l120 -3
-72 19 c-39 10 -86 26 -102 35 -48 24 -99 81 -112 123 -10 36 -9 42 16 81 15
22 30 41 32 41 3 0 13 -10 23 -22 10 -13 37 -34 61 -46 l44 -24 -52 47 c-63
56 -72 99 -20 104 4 1 7 -6 7 -14z m440 -70 c0 -6 -62 -45 -72 -45 -4 0 -2 11
4 25 8 18 19 25 40 25 15 0 28 -2 28 -5z m-132 -16 c27 1 32 -2 32 -23 0 -18
-9 -27 -40 -40 -57 -23 -68 -21 -130 21 l-55 37 30 8 c17 4 53 4 80 1 28 -3
65 -5 83 -4z m1240 -46 c-7 -55 6 -93 78 -238 49 -100 66 -146 74 -200 8 -64
8 -71 -12 -92 -12 -13 -28 -23 -35 -23 -8 0 -36 -11 -63 -25 -40 -20 -64 -25
-128 -25 -76 0 -102 9 -102 36 0 20 30 44 54 44 12 0 31 7 42 15 17 14 13 14
-48 9 -38 -4 -68 -3 -68 2 0 5 -3 19 -6 32 -5 18 -2 22 15 22 27 0 110 42 94
47 -7 3 -40 -3 -73 -11 -34 -9 -64 -16 -66 -16 -3 0 -4 14 -2 31 3 27 9 34 52
50 28 10 57 25 65 34 14 13 13 15 -7 15 -12 0 -40 -7 -62 -16 -53 -21 -72 -13
-68 28 3 29 7 33 83 59 44 16 103 29 130 29 l50 2 -32 13 c-36 17 -48 51 -38
117 7 47 20 68 50 86 28 16 28 16 23 -25z m269 -299 c-2 -3 -26 -1 -53 4 -44
7 -49 11 -46 32 5 50 22 53 64 9 22 -22 38 -43 35 -45z m2 -35 c49 -11 55 -15
71 -53 35 -78 43 -157 37 -349 -5 -185 -17 -252 -46 -266 -23 -11 -132 -34
-137 -28 -3 3 0 45 7 93 19 144 3 399 -36 558 -2 12 5 1 16 -23 11 -24 27 -71
35 -105 l14 -61 -5 51 c-3 28 -12 75 -21 105 -28 99 -28 98 -8 94 11 -2 43 -9
73 -16z m-170 -459 c1 -87 13 -195 28 -245 3 -13 2 -17 -5 -10 -5 6 -15 35
-21 65 -14 64 -25 360 -12 315 5 -16 9 -73 10 -125z"/>
<path d="M2205 3711 c-37 -22 -70 -59 -62 -67 3 -3 17 5 30 18 13 13 37 34 53
46 36 26 20 29 -21 3z"/>
<path d="M2253 3438 c-23 -30 -24 -41 -2 -21 12 12 20 25 17 28 -3 3 -10 0
-15 -7z"/>
<path d="M3015 3382 c0 -26 -4 -67 -9 -92 -6 -35 -5 -42 4 -33 15 14 26 135
14 156 -6 11 -9 1 -9 -31z"/>
<path d="M2086 3298 c-3 -7 -9 -28 -15 -47 -12 -38 -8 -53 7 -24 13 24 25 83
17 83 -3 0 -7 -6 -9 -12z"/>
<path d="M2389 3249 c-8 -27 -14 -49 -13 -49 9 0 35 64 32 80 -2 11 -9 -1 -19
-31z"/>
<path d="M2640 3169 c-6 -11 -10 -25 -7 -32 2 -6 9 3 15 21 12 36 8 42 -8 11z"/>
<path d="M2785 3010 c-27 -30 -12 -34 15 -5 13 14 19 25 13 25 -5 0 -18 -9
-28 -20z"/>
<path d="M2033 3009 c-7 -7 -13 -22 -13 -33 0 -16 3 -17 12 -8 7 7 39 12 74
12 57 0 86 11 70 28 -14 13 -131 14 -143 1z"/>
<path d="M2300 3014 c0 -3 5 -14 10 -25 9 -17 22 -19 98 -19 65 0 94 -4 111
-16 23 -16 23 -16 16 7 -14 48 -39 59 -141 59 -52 0 -94 -3 -94 -6z"/>
<path d="M2206 2955 c3 -14 3 -32 0 -42 -6 -15 -8 -14 -22 5 -13 18 -25 22
-72 22 -46 0 -60 -4 -70 -20 -13 -22 -3 -27 16 -8 10 10 15 10 22 -2 6 -8 8
-21 5 -27 -3 -9 7 -13 29 -13 22 0 36 6 40 16 9 22 8 24 -9 24 -8 0 -15 5 -15
10 0 14 11 12 31 -6 10 -9 15 -23 12 -32 -5 -11 -2 -14 10 -9 14 5 15 3 4 -21
-6 -15 -22 -43 -34 -62 -26 -39 -29 -55 -11 -66 8 -5 9 -1 5 12 -7 18 -6 18 7
2 19 -25 27 -22 20 6 -4 15 4 42 22 77 32 64 47 129 32 147 -17 20 -29 14 -22
-13z"/>
<path d="M2351 2911 c-11 -11 -22 -17 -25 -13 -3 3 -6 0 -6 -6 0 -21 23 -25
37 -6 12 16 15 17 23 4 5 -8 10 -21 10 -27 0 -9 16 -13 45 -13 38 0 43 2 38
18 -4 9 -14 22 -22 29 -27 21 -1 14 37 -9 l35 -21 -17 25 c-28 42 -121 53
-155 19z"/>
<path d="M2705 2766 c-30 -30 -43 -75 -24 -86 10 -7 10 -12 1 -23 -16 -19 -4
-29 20 -16 15 8 18 17 14 35 -5 17 -2 24 9 24 8 0 15 -5 15 -11 0 -5 4 -7 10
-4 5 3 7 0 4 -8 -11 -29 16 -27 31 2 20 40 19 74 -3 94 -26 23 -49 21 -77 -7z
m65 -36 l0 -29 -29 17 c-22 12 -27 20 -19 29 6 7 19 13 29 13 14 0 19 -7 19
-30z"/>
<path d="M2302 2736 c1 -15 6 -26 10 -26 12 0 10 38 -2 45 -6 4 -9 -5 -8 -19z"/>
<path d="M2255 2720 c-3 -5 -2 -10 4 -10 5 0 13 5 16 10 3 6 2 10 -4 10 -5 0
-13 -4 -16 -10z"/>
<path d="M2134 2649 c16 -55 18 -89 7 -103 -34 -40 124 -49 176 -10 35 26 79
83 88 113 7 23 6 23 -31 15 -50 -11 -147 -11 -203 0 -43 8 -44 8 -37 -15z
m136 -19 c39 0 51 -3 40 -10 -24 -15 -104 -12 -126 6 -18 15 -18 15 6 10 14
-3 50 -6 80 -6z"/>
<path d="M2042 2593 c2 -9 8 -18 15 -20 7 -3 9 3 6 16 -6 25 -26 28 -21 4z"/>
<path d="M2460 2581 c-6 -12 -7 -21 -1 -21 10 0 24 30 17 37 -2 3 -9 -5 -16
-16z"/>
<path d="M2162 2463 c6 -7 23 -13 38 -13 15 0 32 6 38 13 9 11 1 13 -38 13
-39 0 -47 -2 -38 -13z"/>
<path d="M2079 2403 c12 -23 29 -38 37 -31 2 3 -8 15 -22 29 -25 23 -26 23
-15 2z"/>
<path d="M1073 2501 c-70 -33 -129 -89 -164 -156 -21 -39 -22 -47 -9 -55 22
-14 23 -14 44 38 24 58 105 141 172 175 68 36 33 34 -43 -2z"/>
<path d="M580 2109 c47 -40 160 -89 160 -71 0 9 -163 92 -178 92 -4 -1 4 -10
18 -21z"/>
<path d="M1995 2025 c-39 -23 -92 -39 -168 -50 -23 -4 -35 -10 -31 -17 17 -28
198 24 234 67 21 25 8 25 -35 0z"/>
<path d="M842 2181 c-15 -48 -15 -68 -1 -77 16 -9 32 11 46 58 13 46 10 58
-16 58 -12 0 -22 -13 -29 -39z"/>
<path d="M2785 2192 c18 -17 174 -76 182 -68 11 10 -13 23 -87 46 -104 33
-106 33 -95 22z"/>
<path d="M1455 1728 c-28 -15 -35 -23 -23 -26 20 -4 78 24 78 38 0 14 -10 12
-55 -12z"/>
<path d="M2714 1420 c2 -14 8 -42 11 -62 4 -21 11 -38 17 -38 12 0 -1 68 -19
100 l-14 25 5 -25z"/>
<path d="M2900 780 c-25 -11 -38 -19 -30 -19 24 -1 89 19 95 29 9 14 -14 11
-65 -10z"/>
<path d="M1905 1670 c-15 -17 -16 -24 -7 -45 14 -29 41 -32 72 -7 l21 17 -21
28 c-26 32 -41 34 -65 7z m45 -25 c0 -8 -7 -15 -15 -15 -8 0 -15 7 -15 15 0 8
7 15 15 15 8 0 15 -7 15 -15z"/>
<path d="M1832 1258 c-28 -28 -6 -68 40 -68 36 0 51 27 31 57 -17 25 -52 30
-71 11z m44 -19 c3 -6 1 -16 -5 -22 -9 -9 -14 -8 -21 3 -9 15 -4 30 10 30 5 0
12 -5 16 -11z"/>
<path d="M1624 1136 c3 -32 10 -64 17 -70 9 -8 10 1 4 38 -11 78 -26 102 -21
32z"/>
<path d="M1818 793 c-23 -6 -34 -49 -18 -68 7 -8 23 -15 36 -15 25 0 64 32 45
38 -6 2 -11 10 -11 17 0 18 -29 33 -52 28z m32 -38 c0 -8 -6 -15 -14 -15 -17
0 -28 14 -19 24 12 12 33 6 33 -9z"/>
</g>
</svg>
